<?xml version="1.0" encoding="UTF-8" standalone="no"?>
<!-- Created with Inkscape (http://www.inkscape.org/) -->

<svg
   width="287.55707mm"
   height="75.5784mm"
   viewBox="0 0 287.55706 75.5784"
   version="1.1"
   id="svg1"
   inkscape:export-filename="Text-Logo-White .svg"
   inkscape:export-xdpi="96"
   inkscape:export-ydpi="96"
   xmlns:inkscape="http://www.inkscape.org/namespaces/inkscape"
   xmlns:sodipodi="http://sodipodi.sourceforge.net/DTD/sodipodi-0.dtd"
   xmlns="http://www.w3.org/2000/svg"
   xmlns:svg="http://www.w3.org/2000/svg">
  <sodipodi:namedview
     id="namedview1"
     pagecolor="#ffffff"
     bordercolor="#999999"
     borderopacity="1"
     inkscape:showpageshadow="2"
     inkscape:pageopacity="0"
     inkscape:pagecheckerboard="0"
     inkscape:deskcolor="#d1d1d1"
     inkscape:document-units="mm" />
  <defs
     id="defs1" />
  <g
     inkscape:label="Layer 1"
     inkscape:groupmode="layer"
     id="layer1"
     transform="translate(767.55383,192.76518)">
    <rect
       style="display:none;fill:#e6e6e6;fill-opacity:1;stroke:none;stroke-width:1.03666;stroke-linecap:round;stroke-linejoin:round;stroke-dasharray:none;stroke-opacity:1"
       id="rect9"
       width="538.96027"
       height="494.70212"
       x="-785.05389"
       y="-297.02371"
       ry="3.5527906"
       sodipodi:insensitive="true"
       inkscape:label="BG" />
    <g
       id="g10"
       inkscape:label="Default Logo Black Full"
       transform="translate(1.2083333e-5,-1.3125e-5)"
       style="display:inline">
      <rect
         style="fill:#8655f7;fill-opacity:1;stroke:#8655f7;stroke-width:1;stroke-linecap:round;stroke-linejoin:round;stroke-dasharray:none;stroke-opacity:1"
         id="rect1-25-5"
         width="6.6119132"
         height="15.613061"
         x="-159.38075"
         y="751.37805"
         ry="3.9160583"
         transform="rotate(90)" />
      <rect
         style="fill:#a855f7;fill-opacity:1;stroke:#a855f7;stroke-width:1;stroke-linecap:round;stroke-linejoin:round;stroke-dasharray:none;stroke-opacity:1"
         id="rect1-8"
         width="6.6119132"
         height="52.537907"
         x="-653.84741"
         y="380.33081"
         ry="3.3059566"
         transform="rotate(45)" />
      <rect
         style="fill:#8655f7;fill-opacity:1;stroke:#8655f7;stroke-width:1;stroke-linecap:round;stroke-linejoin:round;stroke-dasharray:none;stroke-opacity:1"
         id="rect1-25-6-9"
         width="6.6119132"
         height="15.613061"
         x="-156.95209"
         y="707.72644"
         ry="3.9160583"
         transform="rotate(90)" />
      <rect
         style="fill:#a855f7;fill-opacity:1;stroke:#a855f7;stroke-width:1;stroke-linecap:round;stroke-linejoin:round;stroke-dasharray:none;stroke-opacity:1"
         id="rect1-4-3"
         width="6.6119132"
         height="52.537907"
         x="-614.57178"
         y="390.9259"
         ry="3.3059566"
         transform="rotate(45)" />
      <rect
         style="fill:#c855f7;fill-opacity:1;stroke:#c855f7;stroke-width:1;stroke-linecap:round;stroke-linejoin:round;stroke-dasharray:none;stroke-opacity:1"
         id="rect1-4-0-6"
         width="6.6119132"
         height="40.564983"
         x="-734.33154"
         y="-191.98872"
         ry="4.2639327" />
      <rect
         style="fill:#c855f7;fill-opacity:1;stroke:#c855f7;stroke-width:1;stroke-linecap:round;stroke-linejoin:round;stroke-dasharray:none;stroke-opacity:1"
         id="rect1-4-0-1-7"
         width="6.6119132"
         height="40.564983"
         x="740.44879"
         y="117.69836"
         ry="4.2639327"
         transform="scale(-1)" />
      <g
         id="text3-1"
         style="font-weight:bold;font-size:78.645px;font-family:'Segoe Print';-inkscape-font-specification:'Segoe Print, Bold';stroke:#000000;stroke-linecap:round;stroke-linejoin:round"
         aria-label="Flare!"
         transform="translate(20.01444,237.31408)">
        <path
           d="m -670.70388,-412.49085 q -0.92162,0.61441 -2.22725,0.61441 -0.76802,0 -1.34403,-0.1536 -0.99843,-0.192 -3.30248,-0.192 -4.76171,0 -10.90585,0.69121 -6.10574,0.69122 -8.37139,1.61284 -2.41925,7.29617 -2.99527,17.3956 1.57444,-0.23041 3.18728,-0.42241 5.95213,-0.61442 11.09785,-1.57444 4.3009,-0.76802 6.91216,-0.76802 5.83693,0 5.83693,4.0705 0,0.72961 -1.15203,1.99684 -1.11362,1.22883 -2.41925,1.76644 -1.30563,0.53761 -4.83851,1.03683 l -10.29144,1.26722 q -5.91373,0.72962 -8.7554,1.45924 -0.42241,0.192 -0.65281,0.72961 -0.19201,0.49922 -0.53761,4.64651 -0.30721,4.10889 -0.30721,7.60337 l 0.1536,4.87692 q 0,4.5313 -4.22409,4.5313 -2.15045,0 -4.1089,-1.57444 -1.92004,-1.57443 -1.92004,-4.26249 0,-4.99212 1.15202,-14.32353 0.0768,-0.42241 3.9937,-28.37825 0,-1.30563 -0.38401,-2.22725 -0.57602,-1.65124 -0.57602,-2.64966 0,-1.38243 1.61284,-2.88007 1.65124,-1.53603 3.03367,-1.53603 0.92162,0 1.92004,0.2304 1.42084,0.30721 2.95687,0.30721 1.49764,0 12.28828,-1.22883 7.02736,-0.76802 10.48344,-0.76802 3.64808,0 5.64493,1.15203 2.03525,1.11363 2.03525,2.03525 0,3.22567 -2.99527,4.95371 z m 17.6644,-17.08839 q 4.1473,0 4.1473,4.5313 0,2.07365 -0.57602,4.49291 -0.57601,2.38085 -3.14887,11.86587 -1.88164,6.87375 -2.88006,15.01474 -0.96003,8.10258 -0.96003,12.67229 0,4.87691 0.72962,11.59706 0.192,1.80485 0.192,2.26566 0,2.30405 -1.68963,3.95529 -1.68964,1.65123 -3.68649,1.65123 -2.72646,0 -3.84009,-2.57285 -1.11362,-2.57286 -1.11362,-8.83221 0,-13.4787 3.14887,-31.75752 3.18727,-18.27882 5.18412,-21.5813 2.03525,-3.30247 4.4929,-3.30247 z m 34.59919,52.14839 q -10.09943,13.32511 -19.50765,13.32511 -3.45607,0 -5.95213,-2.72647 -2.49606,-2.72646 -2.49606,-6.95056 0,-10.17623 9.06261,-21.65809 9.06261,-11.52026 18.27882,-11.52026 4.6849,0 6.14414,4.7233 4.4161,0 4.4161,3.37928 0,1.61284 -0.84482,5.83693 -1.53604,7.91059 -1.53604,12.63389 0,4.91532 0.65282,6.91216 0.69121,1.99685 0.99842,2.61126 0.30721,0.61441 1.84324,1.30563 1.53604,0.72962 1.53604,2.03525 0,1.95844 -1.99685,3.26407 -1.95844,1.30563 -4.10889,1.30563 -7.21937,0 -6.48975,-14.47713 z m -2.30405,-21.31249 q -3.87849,0 -10.09943,8.6018 -6.18254,8.5634 -6.18254,14.55393 0,3.14887 1.30562,3.14887 4.53131,0 11.13626,-8.02578 6.64335,-8.06418 6.64335,-14.09312 0,-1.92004 -0.88322,-3.03367 -0.84482,-1.15203 -1.92004,-1.15203 z m 31.60392,15.12995 0.65281,-1.22883 q 4.64651,-9.33141 9.98423,-15.12994 5.37612,-5.83694 10.48344,-5.83694 3.91689,0 6.37455,2.15045 2.49605,2.15045 2.49605,5.10732 0,1.84324 -0.84482,3.18727 -0.84482,1.30563 -2.34245,1.30563 -2.38085,0 -4.3393,-1.95844 -1.38243,-1.26723 -2.18885,-1.26723 -2.88006,0 -9.63862,8.9474 -6.75855,8.94741 -8.14099,20.12206 -0.4224,3.22568 -1.88164,4.4929 -1.45923,1.30563 -3.95529,1.30563 -2.64966,0 -3.76328,-2.99526 -1.11363,-3.03367 -1.11363,-9.86903 0,-2.80326 0.1536,-7.56497 0.15361,-4.49291 0.88322,-10.98265 0.19201,-1.68964 0.26881,-2.64966 0.34561,-3.76329 0.76802,-5.14572 0.46081,-1.42083 2.07364,-2.64966 1.61284,-1.22883 3.57129,-1.22883 2.07364,0 3.14887,1.19043 1.07522,1.19042 1.07522,2.61126 0,1.80484 -1.72804,7.48817 -0.61441,1.95844 -1.03682,4.6849 z m 65.05108,5.83693 q 0,3.99369 -6.72015,9.56182 -6.72016,5.52973 -15.16835,5.52973 -6.48975,0 -10.21463,-4.0705 -3.72489,-4.10889 -3.72489,-11.40506 0,-10.75224 7.60338,-20.16046 7.60337,-9.40821 16.24357,-9.40821 4.30089,0 6.91215,2.72646 2.61126,2.72646 2.61126,6.48975 0,6.68175 -6.41294,12.74909 -6.41295,6.02894 -16.43558,8.33299 -1.15202,0.26881 -1.15202,1.38243 0,1.84324 1.61283,3.53288 1.65124,1.65124 4.3777,1.65124 7.71858,0 15.32195,-7.94898 1.45924,-1.53604 2.84167,-1.53604 2.30405,0 2.30405,2.57286 z m -25.76699,-6.79695 q 6.06734,-1.22883 10.67545,-5.18412 4.6465,-3.95529 4.6465,-7.18096 0,-1.26723 -0.72962,-2.11205 -0.69121,-0.88322 -1.80484,-0.88322 -3.34087,0 -7.41137,4.91531 -4.07049,4.91531 -5.37612,10.44504 z"
           id="path7" />
        <path
           style="fill:#a855f7;stroke:#a855f7"
           d="m -508.15297,-382.96058 c 0.81921,-1.38243 1.25442,-2.98246 1.30562,-4.80011 0.0512,-2.40645 0.61441,-5.61933 1.68964,-9.63862 1.02403,-3.86569 2.04805,-8.08978 3.07207,-12.67228 1.04963,-4.60811 1.57444,-7.27057 1.57444,-7.98739 0,-0.89602 -0.47361,-1.71524 -1.42083,-2.45765 -0.92162,-0.76802 -1.89444,-1.15203 -2.91847,-1.15203 -0.94722,0 -2.09925,0.48641 -3.45608,1.45923 -1.35683,0.97283 -2.17604,2.39366 -2.45765,4.2625 -0.25601,1.84324 -0.38401,2.90566 -0.38401,3.18727 0,2.84167 -0.62722,7.11697 -1.88165,12.8259 -1.12642,5.27372 -1.48483,10.40664 -1.07522,15.39875 1.40803,1.04962 3.39208,1.57443 5.95214,1.57443 z"
           id="path8"
           sodipodi:nodetypes="ccccscsscsccc" />
        <path
           d="m -513.93002,-364.78432 c 0.94722,0 2.13764,-0.44801 3.57128,-1.34403 1.43363,-0.92162 2.26565,-2.22725 2.49605,-3.91689 l 0.38401,-2.38086 c 0,-0.58882 -0.65281,-1.30563 -1.95845,-2.15045 -1.30562,-0.84482 -2.39364,-1.26722 -3.26406,-1.26722 -1.33124,0 -2.57287,0.76801 -3.72489,2.30405 -1.15203,1.53603 -1.72804,2.89286 -1.72804,4.07049 0,3.12327 1.40803,4.68491 4.2241,4.68491 z"
           style="fill:#8655f7;fill-opacity:1;stroke:#8655f7;stroke-opacity:1"
           id="path1" />
      </g>
    </g>
  </g>
</svg>
